<svg width="24" height="24" viewBox="0 0 24 24" fill="none" xmlns="http://www.w3.org/2000/svg">
<path d="M11.3857 1.21095C11.7469 0.930089 12.2531 0.930089 12.6143 1.21095L21.6143 8.21095C21.8576 8.40042 22 8.69157 22 9.00002V20C22 20.7957 21.6837 21.5585 21.1211 22.1211C20.5585 22.6837 19.7957 23 19 23H15V14C15 12.8954 14.1046 12 13 12H11C9.89543 12 9 12.8954 9 14V23H5C4.20435 23 3.44152 22.6837 2.87891 22.1211C2.3163 21.5585 2 20.7957 2 20V9.00002C2 8.69157 2.14236 8.40042 2.38574 8.21095L11.3857 1.21095Z" fill="black"/>
</svg>
