<svg width="20" height="22" viewBox="0 0 20 22" fill="none" xmlns="http://www.w3.org/2000/svg">
<path d="M9.6347 0C10.141 0 10.5514 0.410406 10.5514 0.916667V2.50118C14.1688 2.95226 16.968 6.03812 16.968 9.77778V13.6518C16.968 13.7615 17.0268 13.8627 17.122 13.9171L18.1053 14.479C18.6988 14.8182 19.0945 15.4205 19.17 16.0999L19.2561 16.8749C19.3969 18.1419 18.4051 19.25 17.1303 19.25H12.3847C12.3847 20.7688 11.1535 22 9.6347 22C8.11592 22 6.8847 20.7688 6.8847 19.25H2.13914C0.864339 19.25 -0.127443 18.1419 0.0133356 16.8749L0.0994464 16.0999C0.174932 15.4205 0.57058 14.8182 1.16407 14.479L2.14742 13.9171C2.24262 13.8627 2.30137 13.7615 2.30137 13.6518V9.77778C2.30137 6.03813 5.10058 2.95228 8.71803 2.50118V0.916667C8.71803 0.410406 9.12844 0 9.6347 0ZM8.71803 19.25C8.71803 19.7563 9.12844 20.1667 9.6347 20.1667C10.141 20.1667 10.5514 19.7563 10.5514 19.25H8.71803ZM9.63471 4.27778C6.59714 4.27778 4.13471 6.74021 4.13471 9.77778V13.6518C4.13471 14.4194 3.72343 15.1281 3.057 15.5089L2.07366 16.0708C1.98887 16.1193 1.93235 16.2053 1.92157 16.3024L1.83546 17.0774C1.81534 17.2584 1.95703 17.4167 2.13914 17.4167H17.1303C17.3124 17.4167 17.4541 17.2584 17.434 17.0774L17.3478 16.3024C17.3371 16.2053 17.2805 16.1193 17.1958 16.0708L16.2124 15.5089C15.546 15.1281 15.1347 14.4194 15.1347 13.6518V9.77778C15.1347 6.74021 12.6723 4.27778 9.63471 4.27778Z" fill="black"/>
</svg>
