<svg width="24" height="18" viewBox="0 0 24 18" fill="none" xmlns="http://www.w3.org/2000/svg">
<path d="M22.0588 0C22.7557 0 23.2389 0.694967 22.9962 1.34825C22.8506 1.74005 22.4768 2 22.0588 2H21.2008C20.9783 2 20.7825 2.14715 20.7206 2.36096L17.5601 13.2781C17.4363 13.7057 17.0447 14 16.5995 14H4.77697C4.37416 14 4.01067 13.7583 3.85484 13.3869L0.0789272 4.38687C-0.197546 3.72789 0.28643 3 1.00106 3H14.9881C15.651 3 16.1305 3.63335 15.9505 4.27141C15.829 4.70236 15.4358 5 14.9881 5H3.25708C2.89976 5 2.65778 5.36396 2.79602 5.69345L5.31345 11.6934C5.39137 11.8792 5.57311 12 5.77451 12H15.493C15.7162 12 15.9124 11.8521 15.9737 11.6375L19.0947 0.725024C19.2175 0.295849 19.6098 0 20.0562 0H22.0588ZM7.99707 15C7.16907 15 6.49707 15.672 6.49707 16.5C6.49707 17.329 7.16907 18 7.99707 18C8.82507 18 9.49707 17.329 9.49707 16.5C9.49707 15.672 8.82507 15 7.99707 15ZM12.9971 15C12.1691 15 11.4971 15.671 11.4971 16.5C11.4971 17.329 12.1691 18 12.9971 18C13.8251 18 14.4971 17.329 14.4971 16.5C14.4971 15.672 13.8251 15 12.9971 15Z" fill="black"/>
</svg>
