<svg width="22" height="22" viewBox="0 0 22 22" fill="none" xmlns="http://www.w3.org/2000/svg">
<path fill-rule="evenodd" clip-rule="evenodd" d="M11 19.9375C15.936 19.9375 19.9375 15.936 19.9375 11C19.9375 6.06396 15.936 2.0625 11 2.0625C6.06396 2.0625 2.0625 6.06396 2.0625 11C2.0625 15.936 6.06396 19.9375 11 19.9375ZM22 11C22 17.0751 17.0751 22 11 22C4.92487 22 0 17.0751 0 11C0 4.92487 4.92487 0 11 0C17.0751 0 22 4.92487 22 11Z" fill="black"/>
<path fill-rule="evenodd" clip-rule="evenodd" d="M13.0896 13.1212C13.4107 12.927 13.6351 12.6065 13.7078 12.2384L14.9351 6.0176C15.0024 5.67675 14.633 5.41811 14.3357 5.59788L8.90991 8.87887C8.58879 9.07305 8.36436 9.39356 8.29172 9.76172L7.06435 15.9825C6.9971 16.3233 7.36647 16.582 7.66376 16.4022L13.0896 13.1212ZM9.72745 12.8171L11.8026 11.5622L12.272 9.18302L10.1969 10.4379L9.72745 12.8171Z" fill="black"/>
</svg>
