<svg width="22" height="20" viewBox="0 0 22 20" fill="none" xmlns="http://www.w3.org/2000/svg">
<path fill-rule="evenodd" clip-rule="evenodd" d="M11.5942 0.212502C11.2486 -0.0708381 10.751 -0.0708336 10.4054 0.212513L0.343147 8.46234C0.0368584 8.71346 -0.0785678 9.12997 0.0547755 9.50292C0.188119 9.87587 0.541458 10.1248 0.93753 10.1248H2.39473L3.13977 18.267C3.21338 19.0714 3.88798 19.6871 4.69574 19.6871H8.18769C8.53286 19.6871 8.81268 19.4073 8.81268 19.0621V14.2592C8.81268 12.3843 10.3425 12.3843 10.6876 12.3843H11.3126C11.6578 12.3843 13.1876 12.3843 13.1876 14.2592V19.0621C13.1876 19.4073 13.4674 19.6871 13.8126 19.6871H17.3046C18.1124 19.6871 18.787 19.0714 18.8606 18.267L19.6056 10.1248H21.0625C21.4585 10.1248 21.8119 9.87587 21.9452 9.50291C22.0786 9.12996 21.9631 8.71344 21.6568 8.46233L11.5942 0.212502Z" fill="black"/>
</svg>
