<svg width="16" height="15" viewBox="0 0 16 15" fill="none" xmlns="http://www.w3.org/2000/svg">
<path d="M6.81632 0.563789C7.60544 0.99773 8 1.52381 8 1.52381C8 1.52381 8.39456 0.99773 9.18368 0.563789C9.73758 0.259197 10.4859 0 11.4286 0C14.0952 0 16 2.09523 16 4.7619C16 7.80952 13.5094 10.5263 11.2381 12.5714C9.83584 13.8341 8.7619 14.6667 8 14.6667C7.2381 14.6667 6.13372 13.8277 4.7619 12.5714C2.52914 10.5267 0 7.80952 0 4.7619C0 2.09523 1.90476 0 4.57143 0C5.51412 0 6.26242 0.259197 6.81632 0.563789ZM6.2976 2.02979C5.92523 1.78154 5.35725 1.52381 4.57143 1.52381C2.82723 1.52381 1.52381 2.85357 1.52381 4.7619C1.52381 5.8594 1.98112 6.99809 2.79634 8.1751C3.60953 9.34917 4.69975 10.4483 5.79105 11.4477C6.46318 12.0632 7.01561 12.5254 7.4628 12.8276C7.76145 13.0294 7.93192 13.1027 7.99917 13.129C8.06565 13.1026 8.23157 13.0297 8.52293 12.8319C8.96998 12.5283 9.5239 12.0644 10.2184 11.439C11.3217 10.4456 12.4096 9.34846 13.216 8.17803C14.024 7.00534 14.4762 5.86497 14.4762 4.7619C14.4762 2.85357 13.1728 1.52381 11.4286 1.52381C10.6428 1.52381 10.0748 1.78154 9.7024 2.02979C9.0515 2.46373 8.54346 3.12946 8 3.68254C7.46311 3.13615 6.94043 2.45834 6.2976 2.02979Z" fill="black"/>
</svg>
