<svg width="14" height="16" viewBox="0 0 14 16" fill="none" xmlns="http://www.w3.org/2000/svg">
<path d="M4.19048 4.19048C3.98008 4.19048 3.80952 4.36103 3.80952 4.57143V5.33333C3.80952 5.54373 3.98008 5.71429 4.19048 5.71429H9.52381C9.7342 5.71429 9.90476 5.54373 9.90476 5.33333V4.57143C9.90476 4.36103 9.7342 4.19048 9.52381 4.19048H4.19048Z" fill="black"/>
<path d="M4.19048 7.2381C3.98008 7.2381 3.80952 7.40865 3.80952 7.61905V8.38095C3.80952 8.59135 3.98008 8.7619 4.19048 8.7619H9.52381C9.7342 8.7619 9.90476 8.59135 9.90476 8.38095V7.61905C9.90476 7.40865 9.7342 7.2381 9.52381 7.2381H4.19048Z" fill="black"/>
<path d="M3.80952 10.6667C3.80952 10.4563 3.98008 10.2857 4.19048 10.2857H7.2381C7.44849 10.2857 7.61905 10.4563 7.61905 10.6667V11.4286C7.61905 11.639 7.44849 11.8095 7.2381 11.8095H4.19048C3.98008 11.8095 3.80952 11.639 3.80952 11.4286V10.6667Z" fill="black"/>
<path fill-rule="evenodd" clip-rule="evenodd" d="M0 2.66667C0 1.19391 1.19391 0 2.66667 0H11.0476C12.5204 0 13.7143 1.19391 13.7143 2.66667V13.3333C13.7143 14.8061 12.5204 16 11.0476 16H2.66667C1.19391 16 0 14.8061 0 13.3333V2.66667ZM2.66667 1.52381H11.0476C11.6788 1.52381 12.1905 2.03548 12.1905 2.66667V13.3333C12.1905 13.9645 11.6788 14.4762 11.0476 14.4762H2.66667C2.03548 14.4762 1.52381 13.9645 1.52381 13.3333V2.66667C1.52381 2.03548 2.03548 1.52381 2.66667 1.52381Z" fill="black"/>
</svg>
