<svg width="17" height="17" viewBox="0 0 17 17" fill="none" xmlns="http://www.w3.org/2000/svg">
<path d="M6.51621 0C8.63831 0 10.3536 1.71917 10.3536 3.83743C10.3536 5.9557 8.63831 7.67486 6.51621 7.67486C4.39794 7.67486 2.67877 5.9557 2.67877 3.83743C2.67877 1.71917 4.39794 0 6.51621 0ZM6.51621 1.53497C5.24602 1.53497 4.21375 2.56724 4.21375 3.83743C4.21375 5.10762 5.24602 6.13989 6.51621 6.13989C7.79023 6.13989 8.81867 5.10762 8.81867 3.83743C8.81867 2.56724 7.79023 1.53497 6.51621 1.53497Z" fill="black"/>
<path d="M6.51621 8.82609C8.09422 8.82609 9.43199 9.25447 10.4776 10.014L9.35517 11.0998C8.59565 10.6226 7.64436 10.3611 6.51621 10.3611C3.41556 10.3611 1.65034 12.3412 1.53522 15.3497C1.52754 15.5608 1.3587 15.7335 1.1438 15.7335H0.376315C0.165256 15.7335 -0.00742802 15.5608 0.000246293 15.3497C0.126882 11.5085 2.57133 8.82609 6.51621 8.82609Z" fill="black"/>
<path d="M16.8194 9.79726L16.1709 9.39049C15.9905 9.27921 15.7526 9.33293 15.6413 9.51329L12.556 14.4521L10.8023 12.4489C10.6603 12.2878 10.4186 12.2724 10.2612 12.4106L9.68178 12.9171C9.52444 13.0552 9.50526 13.3008 9.64724 13.4582L12.0802 16.2403C12.2413 16.4245 12.4754 16.5204 12.7172 16.5013C12.9589 16.4821 13.1777 16.3478 13.3082 16.1405L16.9422 10.3268C17.0535 10.1465 16.9998 9.90854 16.8194 9.79726Z" fill="black"/>
</svg>
