<svg width="17" height="21" viewBox="0 0 17 21" fill="none" xmlns="http://www.w3.org/2000/svg">
<path d="M8.4975 0C11.2648 0 13.5017 2.24 13.5017 5C13.5017 7.76 11.2648 10 8.4975 10C5.73517 10 3.49327 7.76 3.49327 5C3.49327 2.24 5.73517 0 8.4975 0ZM8.4975 2C6.8411 2 5.49496 3.345 5.49496 5C5.49496 6.655 6.8411 8 8.4975 8C10.1589 8 11.5 6.655 11.5 5C11.5 3.345 10.1589 2 8.4975 2ZM8.4975 11.5C13.6468 11.5 16.8345 14.995 16.9997 20C17.0097 20.275 16.7845 20.5 16.5043 20.5H15.5034C15.2282 20.5 15.008 20.275 14.998 20C14.8479 16.08 12.5459 13.5 8.4975 13.5C4.45408 13.5 2.15214 16.08 2.00201 20C1.992 20.275 1.77182 20.5 1.49158 20.5H0.490735C0.215503 20.5 -0.00968723 20.275 0.000321225 20C0.165461 14.995 3.35315 11.5 8.4975 11.5Z" fill="black"/>
</svg>
