<svg width="18" height="16" viewBox="0 0 18 16" fill="none" xmlns="http://www.w3.org/2000/svg">
<path d="M3.42857 7.99997C3.42859 4.42328 6.32807 1.52381 9.90476 1.52381C13.4815 1.52381 16.381 4.4233 16.381 8C16.381 11.5767 13.4815 14.4762 9.90476 14.4762C8.25343 14.4762 6.74645 13.8581 5.60252 12.8407C5.44531 12.7009 5.20483 12.7 5.05605 12.8488L4.51731 13.3875C4.36854 13.5363 4.36794 13.7782 4.52359 13.9198C5.94453 15.2122 7.83265 16 9.90476 16C14.323 16 17.9048 12.4183 17.9048 8C17.9048 3.58172 14.323 0 9.90476 0C5.4865 0 1.90478 3.5817 1.90476 7.99996H0.249224C0.0440081 7.99996 -0.0709127 8.20934 0.0481125 8.3589L2.39578 11.3052C2.53122 11.4697 2.80211 11.4697 2.93755 11.3052L5.28522 8.3589C5.40425 8.20934 5.28933 7.99997 5.08411 7.99997H3.42857Z" fill="black"/>
<path d="M8.7619 4.19048C8.7619 3.98008 8.93246 3.80952 9.14286 3.80952H9.90476C10.1152 3.80952 10.2857 3.98008 10.2857 4.19048V7.56072L13.1949 9.245C13.377 9.35041 13.4391 9.58347 13.3337 9.76555L12.952 10.4249C12.8466 10.607 12.6135 10.6692 12.4314 10.5637L8.95199 8.54933C8.83434 8.48121 8.7619 8.35558 8.7619 8.21964V4.19048Z" fill="black"/>
</svg>
